<?xml version="1.0" encoding="utf-8"?>
<!-- Generator: Adobe Illustrator 24.3.0, SVG Export Plug-In . SVG Version: 6.00 Build 0)  -->
<svg version="1.1" id="Layer_1" xmlns="http://www.w3.org/2000/svg" xmlns:xlink="http://www.w3.org/1999/xlink" x="0px" y="0px"
	 viewBox="0 0 266.1 132.04" style="enable-background:new 0 0 266.1 132.04;" xml:space="preserve">
<style type="text/css">
	.st0{clip-path:url(#SVGID_2_);}
</style>
<g>
	<defs>
		<rect id="SVGID_1_" x="-45.35" y="-1.44" width="464.43" height="169.23"/>
	</defs>
	<clipPath id="SVGID_2_">
		<use xlink:href="#SVGID_1_"  style="overflow:visible;"/>
	</clipPath>
	<g class="st0">
		<path d="M14.3,83.08c0.58-2.21,2.11-4.13,4.13-4.13c0.48,0,0.67,0.1,0.67,0.38c0,0.67-1.44,2.3-3.46,4.03
			c0.1,3.65,2.02,4.99,4.7,4.99c4.7,0,11.71-4.13,14.98-7.39l0.96,1.06c-2.5,2.88-11.81,8.35-17.66,8.35c-3.26,0-4.51-2.4-4.51-5.09
			v-0.58c-3.94,3.07-9.12,6.14-11.42,6.14c-1.92,0-2.69-0.96-2.69-2.4c0-4.42,7.78-13.44,18.72-13.44c2.78,0,2.88,0.67,2.88,1.15
			c0,1.06-1.06,1.06-1.34,1.06c-0.77-0.1-1.54-0.1-2.21-0.1c-9.5,0-15.55,7.3-15.55,10.27c0,0.77,0.38,1.25,1.25,1.25
			C6.43,88.65,12.77,84.23,14.3,83.08z"/>
		<path d="M80.35,53.42c0-1.73-0.48-2.78-1.82-2.78c-3.94,0-12.86,7.2-21.02,15.36c-6.34,13.06-14.59,25.34-18.14,25.34
			c-0.58,0-0.86-0.38-0.86-0.96c0-4.13,7.78-14.69,16.8-24.1c4.8-9.21,8.93-19.1,8.93-25.05c0-20.25-38.78-18.53-44.54-39.07
			c0,0,0-1.06,2.11-1.06c0.29,0,0.67,0.1,0.86,0.67c7.58,19.97,43.1,18.43,43.1,38.88c0,5.09-2.78,13.44-6.62,21.89
			c7.58-7.2,15.36-12.96,19.97-12.96c2.4,0,3.26,1.44,3.26,3.84c0,6.72-7.1,21.02-7.1,31.87c0,4.22,1.73,5.76,4.32,5.76
			c5.38,0,14.21-6.62,17.76-10.08l0.96,1.06c-3.46,4.03-12.77,10.85-19.01,10.85c-3.55,0-6.14-2.21-6.14-8.35
			C73.15,76.36,80.35,59.94,80.35,53.42z M52.8,70.89c-6.82,7.49-12.29,14.69-12.29,17.37c0,0.19,0.1,0.29,0.29,0.29
			C41.85,88.55,47.42,80.58,52.8,70.89z"/>
		<path d="M122.59,82.02c-2.88,2.88-6.62,4.42-9.98,4.42c-2.5,0-4.8-0.96-6.34-2.78c-2.02,3.74-6.14,7.49-10.37,7.49
			c-1.82,0-2.88-1.06-2.88-2.78c0-2.69,2.59-7.01,9.6-11.52c0.48,0.19,0.86,0.77,0.86,1.25c0,0.19-0.1,0.38-0.29,0.58
			c-2.02,0.96-7.87,5.47-7.87,9.7c0,0.96,0.38,1.25,1.34,1.25c3.07,0,7.39-4.22,8.45-7.97c-0.38-1.15-0.67-2.4-0.67-4.03
			c0-0.38,0.19-1.15,0.77-1.15c1.25,0,2.21,2.21,2.21,3.36c0,0.48-0.1,0.86-0.19,1.34c0.86,2.3,3.17,3.46,5.95,3.46
			c2.88,0,6.14-1.25,8.45-3.65L122.59,82.02z"/>
		<path d="M123.36,97.38c-8.64,14.69-20.64,34.65-28.99,34.65c-2.5,0-3.46-1.15-3.46-2.78c0-8.06,12.19-19.97,31.29-32.83
			c3.36-5.66,5.57-9.79,5.57-9.79c0-0.29-0.29-0.29-0.29-0.29c-1.63,1.15-6.14,4.13-8.74,4.13c-1.25,0-2.02-0.67-2.02-2.4
			c0-5.28,12.58-13.25,15.07-13.25c0.58,0,1.63,0.67,1.63,1.34c0,0.19-0.58,0.38-1.25,0.58c-5.95,1.54-13.06,8.16-13.06,10.08
			c0,0.77,0.58,1.34,1.73,1.34c2.98,0,9.02-5.66,10.94-8.16c0.86-1.15,1.44-1.54,1.92-1.54c0.38,0,0.86,0.29,0.86,0.77
			c0,0.29-0.1,0.67-0.19,0.96c-0.29,0.58-2.11,3.26-2.69,4.03c-1.63,2.21-3.94,5.86-6.62,10.17c4.8-3.07,9.98-6.24,15.45-9.41
			c2.11-1.25,4.13-2.78,5.38-4.03l0.96,1.06c-0.86,0.96-2.59,2.3-4.61,3.55C135.55,89.51,129.21,93.45,123.36,97.38z M120.29,99.59
			c-15.94,11.23-26.97,22.08-26.97,28.99c0,1.15,0.77,1.73,2.4,1.73C100.99,130.31,112.61,112.45,120.29,99.59z"/>
		<path d="M154.65,87.97c0-1.25,0.38-2.78,1.06-4.42c-2.11,1.63-9.41,7.2-11.62,7.2c-1.34,0-1.92-0.77-1.92-1.82
			c0-3.94,7.1-13.15,8.35-13.15c0.58,0,0.96,0.77,0.96,1.15c0,0.67-6.62,7.1-6.62,10.66c0,0.38,0.19,0.58,0.58,0.58
			c2.5,0,10.08-6.24,12-8.06c1.54-2.69,3.36-4.9,4.32-4.9c0.86,0,1.25,0,1.25,0.38c0,0.19,0,0.38-0.19,0.67
			c-0.29,0.58-6.14,7.2-6.14,10.46c0,0.96,0.48,1.82,2.59,1.82c4.7,0,11.33-4.61,14.49-7.58l0.96,1.06c-2.5,2.88-12,8.45-17.85,8.45
			C155.23,90.47,154.65,89.42,154.65,87.97z"/>
		<path d="M192.19,80.97l0.96,1.06c-2.5,2.88-12.19,9.41-18.05,9.41c-2.11,0-4.51-1.54-4.51-4.22c0-5.57,7.87-10.85,11.52-10.85
			c1.34,0,1.82,0.77,1.82,1.63c0,2.3-5.66,6.14-10.85,8.83c0,1.63,0.77,2.78,3.17,2.78C180.57,89.61,189.02,84.14,192.19,80.97z
			 M173.37,85.29c4.9-2.4,8.26-5.09,8.26-6.62c0-0.38-0.29-0.58-0.77-0.58C177.88,78.09,174.33,82.02,173.37,85.29z"/>
		<path d="M209.27,81.06l0.96,1.06c-2.5,2.88-11.81,8.35-17.66,8.35c-2.11,0-2.88-1.15-2.88-2.78c0-4.13,4.99-11.23,6.33-11.23
			c0.29,0,0.48,0.1,0.67,0.38c0.1,0.19,0.19,0.48,0.19,0.67c0,0.96-4.61,6.53-4.61,9.31c0,0.96,0.58,1.63,2.02,1.63
			C199,88.46,206.11,84.23,209.27,81.06z M206.3,62.34c0.48,0,0.67,0.38,0.67,0.86c0,0.96-1.25,2.69-2.3,2.69
			c-0.48,0-0.86-0.48-0.86-0.96C203.8,63.98,205.15,62.34,206.3,62.34z"/>
		<path d="M209.37,80.97c2.21-1.92,4.22-4.13,4.99-5.86c0.77-1.25,1.82-2.3,2.98-2.5c0.48,0,0.67,0.19,0.67,0.38
			c0,0.67-2.11,2.11-2.11,3.46s0.58,2.21,2.88,2.5c0.67-0.58,1.25-0.86,1.73-0.86c0.48,0,0.77,0.58,0.77,0.96
			c0,1.15-5.57,4.61-5.57,8.26c0,0.96,1.15,1.73,2.21,1.73c3.26,0,7.87-2.11,11.04-4.03c2.11-1.25,4.13-2.78,5.38-4.03l0.96,1.06
			c-2.5,2.88-11.81,8.35-17.66,8.35c-2.3,0-4.42-1.06-4.42-3.46c0-1.44,1.73-4.13,3.65-6.14c-1.73-0.38-2.69-1.15-2.98-2.11
			c-1.34,1.44-2.98,2.88-4.42,4.13c-0.38,0.29-0.77,0.38-1.06,0.38c-0.67,0-1.15-0.38-1.15-0.38
			C208.03,82.22,208.6,81.64,209.37,80.97z"/>
		<path d="M244.12,83.08c0.58-2.21,2.11-4.13,4.13-4.13c0.48,0,0.67,0.1,0.67,0.38c0,0.67-1.44,2.3-3.46,4.03
			c0.1,3.65,2.02,4.99,4.7,4.99c4.7,0,11.71-4.13,14.97-7.39l0.96,1.06c-2.5,2.88-11.81,8.35-17.66,8.35c-3.26,0-4.51-2.4-4.51-5.09
			v-0.58c-3.94,3.07-9.12,6.14-11.42,6.14c-1.92,0-2.69-0.96-2.69-2.4c0-4.42,7.78-13.44,18.72-13.44c2.78,0,2.88,0.67,2.88,1.15
			c0,1.06-1.06,1.06-1.34,1.06c-0.77-0.1-1.54-0.1-2.21-0.1c-9.5,0-15.55,7.3-15.55,10.27c0,0.77,0.38,1.25,1.25,1.25
			C236.25,88.65,242.58,84.23,244.12,83.08z"/>
	</g>
</g>
<g>
	<path d="M141.38,114.18V103.7c0-0.76,0-1.53-0.02-2.23h1.53c0.04,0.31,0.05,0.85,0.05,1.44c0.5-0.94,1.42-1.66,2.99-1.66
		c2.11,0,3.64,1.76,3.64,4.54c0,3.28-1.75,5.02-3.96,5.02c-1.48,0-2.25-0.61-2.66-1.35v4.72H141.38z M145.52,102.6
		c-1.89,0-2.65,1.19-2.65,3.42c0,2.14,0.61,3.46,2.52,3.46c1.67,0,2.56-1.37,2.56-3.62C147.95,103.92,147.07,102.6,145.52,102.6z"/>
	<path d="M153.22,97.38v5.44c0.45-0.81,1.3-1.57,2.84-1.57c1.46,0,3.08,0.79,3.08,3.51v5.83h-1.58v-5.56c0-1.55-0.65-2.41-1.98-2.41
		c-1.64,0-2.36,1.08-2.36,2.99v4.99h-1.58V97.38H153.22z"/>
	<path d="M169.68,106c0,2.65-1.51,4.81-4.3,4.81c-2.61,0-4.2-2.02-4.2-4.77c0-2.7,1.55-4.79,4.3-4.79
		C168.02,101.25,169.68,103.14,169.68,106z M162.8,106.02c0,2.02,1.01,3.47,2.65,3.47c1.66,0,2.61-1.39,2.61-3.46
		c0-2.05-0.94-3.47-2.65-3.47S162.8,103.95,162.8,106.02z"/>
	<path d="M170.56,101.47h1.58v-2.7h1.57v2.7h2.02v1.28h-2.02v5.35c0,0.9,0.22,1.35,1.04,1.35c0.22,0,0.54-0.02,0.79-0.07v1.19
		c-0.38,0.14-0.92,0.16-1.37,0.16c-1.42,0-2.03-0.74-2.03-2.25v-5.73h-1.58V101.47z"/>
	<path d="M185.21,106c0,2.65-1.51,4.81-4.3,4.81c-2.61,0-4.2-2.02-4.2-4.77c0-2.7,1.55-4.79,4.3-4.79
		C183.56,101.25,185.21,103.14,185.21,106z M178.33,106.02c0,2.02,1.01,3.47,2.65,3.47c1.66,0,2.61-1.39,2.61-3.46
		c0-2.05-0.94-3.47-2.65-3.47S178.33,103.95,178.33,106.02z"/>
	<path d="M194.89,109.77c0,2.93-1.21,4.59-4.19,4.59c-2.77,0-3.62-1.55-3.78-2.79h1.6c0.27,1.01,1.08,1.53,2.25,1.53
		c2.07,0,2.58-1.31,2.58-3.4v-0.74c-0.49,1.01-1.31,1.6-2.84,1.6c-2.25,0-3.78-1.84-3.78-4.52c0-2.97,1.75-4.79,3.94-4.79
		c1.75,0,2.48,0.81,2.68,1.42c0.02-0.42,0.07-1.03,0.09-1.21h1.48c0,0.52-0.02,1.76-0.02,2.63V109.77z M190.86,109.21
		c1.96,0,2.54-1.33,2.54-3.35c0-2.05-0.54-3.28-2.48-3.28c-1.69,0-2.56,1.42-2.56,3.39C188.36,107.9,189.37,109.21,190.86,109.21z"
		/>
	<path d="M197.57,103.95c0-1.28-0.02-2-0.02-2.49h1.55c0.02,0.25,0.05,0.97,0.05,1.85c0.47-1.22,1.55-2.03,3.06-2.07v1.57
		c-1.87,0.05-3.06,1.04-3.06,3.35v4.43h-1.58V103.95z"/>
	<path d="M210.41,108.6c0,0.85,0.07,1.73,0.13,2h-1.51c-0.07-0.2-0.13-0.63-0.14-1.19c-0.32,0.59-1.06,1.4-2.83,1.4
		c-2.16,0-3.08-1.4-3.08-2.79c0-2.03,1.6-2.97,4.32-2.97h1.55v-0.77c0-0.81-0.25-1.78-1.96-1.78c-1.51,0-1.78,0.76-1.94,1.46h-1.53
		c0.13-1.26,0.9-2.7,3.53-2.7c2.23,0,3.47,0.92,3.47,2.99V108.6z M208.86,106.15h-1.48c-1.82,0-2.79,0.5-2.79,1.78
		c0,0.95,0.65,1.64,1.78,1.64c2.2,0,2.48-1.48,2.48-3.13V106.15z"/>
	<path d="M213.13,114.18V103.7c0-0.76,0-1.53-0.02-2.23h1.53c0.04,0.31,0.05,0.85,0.05,1.44c0.5-0.94,1.42-1.66,2.99-1.66
		c2.11,0,3.64,1.76,3.64,4.54c0,3.28-1.75,5.02-3.96,5.02c-1.48,0-2.25-0.61-2.67-1.35v4.72H213.13z M217.27,102.6
		c-1.89,0-2.65,1.19-2.65,3.42c0,2.14,0.61,3.46,2.52,3.46c1.67,0,2.56-1.37,2.56-3.62C219.7,103.92,218.82,102.6,217.27,102.6z"/>
	<path d="M224.97,97.38v5.44c0.45-0.81,1.3-1.57,2.84-1.57c1.46,0,3.08,0.79,3.08,3.51v5.83h-1.58v-5.56c0-1.55-0.65-2.41-1.98-2.41
		c-1.64,0-2.36,1.08-2.36,2.99v4.99h-1.58V97.38H224.97z"/>
	<path d="M234.04,101.47c1.48,4.38,2.29,6.79,2.54,7.72h0.02c0.29-1.04,0.94-3.13,2.43-7.72h1.58l-3.28,9.54
		c-0.92,2.68-1.62,3.35-3.48,3.35c-0.29,0-0.63-0.02-0.99-0.05v-1.37c0.23,0.02,0.5,0.04,0.76,0.04c1.15,0,1.58-0.5,2.12-2.02
		l-3.42-9.49H234.04z"/>
</g>
<g>
</g>
<g>
</g>
<g>
</g>
<g>
</g>
<g>
</g>
<g>
</g>
</svg>
